<svg width="24" height="24" viewBox="0 0 24 24" fill="none" xmlns="http://www.w3.org/2000/svg">
<g id="balloon">
<path id="Union" fill-rule="evenodd" clip-rule="evenodd" d="M15.9 23.8125H15.9188C16.1156 23.8125 16.275 23.6531 16.2938 23.4656C16.3781 21.9469 15.8906 20.7281 15.4969 19.7438C15.4715 19.6787 15.4461 19.6144 15.421 19.5509C15.298 19.2395 15.1826 18.9476 15.1125 18.675C14.8594 17.7563 15.1875 15.1594 15.3375 14.2406C15.375 14.0344 15.2344 13.8375 15.0281 13.8094C14.8219 13.7719 14.625 13.9125 14.5969 14.1188C14.5957 14.1274 14.5926 14.148 14.5879 14.1795C14.5159 14.661 14.065 17.6745 14.3906 18.8625C14.4737 19.1866 14.6084 19.5255 14.749 19.8791C14.7669 19.9243 14.785 19.9699 14.8031 20.0156C15.1875 20.9719 15.6188 22.0594 15.5438 23.4188C15.5344 23.625 15.6938 23.8031 15.9 23.8125ZM12.9656 13.05C13.0781 12.9 13.1906 12.7406 13.2938 12.5906C13.4063 12.4313 13.3688 12.2063 13.2188 12.0656C11.1375 10.4906 9.85314 7.96876 9.88126 5.49376C9.89064 3.80626 10.5281 2.42813 11.6719 1.60313C11.775 1.51876 11.8406 1.38751 11.8219 1.25626C11.8125 1.12501 11.7188 1.01251 11.5969 0.956256C10.35 0.431256 8.88751 0.431256 7.38751 0.975006C4.86564 1.88438 3.55314 3.86251 3.75939 6.41251C3.89064 8.04376 4.68751 9.76876 5.94376 11.1469C7.18126 12.5063 8.80314 13.4625 10.5563 13.8844C10.4906 14.1094 10.5 14.3063 10.5938 14.475C10.6781 14.625 10.875 14.8594 11.3813 14.8594C11.5381 14.8594 11.6949 14.8375 11.8355 14.8071C12.1467 15.4478 12.8471 17.1726 12.3375 18.6937C11.9156 19.9312 11.9531 20.2875 12.0938 21.0375C12.1875 21.5344 12.3094 22.2094 12.3094 23.625C12.3094 23.8312 12.4781 24 12.6844 24C12.8906 24 13.0594 23.8312 13.0594 23.6156C13.0594 22.1561 12.932 21.4429 12.8385 20.9201L12.8344 20.8969L12.8316 20.881C12.7211 20.2647 12.6782 20.025 13.05 18.9281C13.6326 17.1951 12.9199 15.3432 12.5463 14.5544C12.8899 14.3781 13.2938 14.0745 13.2938 13.6406C13.2938 13.4625 13.2281 13.2469 12.9656 13.05Z" fill="#1566F1"/>
<path id="Vector" opacity="0.3" d="M16.2282 13.1719C16.4251 13.4344 16.4251 13.6594 16.3689 13.8281C16.1814 14.4375 15.2532 14.5219 14.972 14.5406H14.8501C14.1845 14.5406 13.7157 14.325 13.5751 13.9594C13.5001 13.7437 13.5282 13.5188 13.6782 13.2938C13.3595 13.1063 13.0501 12.9094 12.7595 12.6844C10.4907 10.9594 9.09387 8.2125 9.122 5.50313C9.14075 3.58125 9.89075 1.9875 11.222 1.0125C12.047 0.4125 13.0689 0.075 14.2595 0.009375C14.4001 0 14.5501 0 14.6814 0C17.2689 0 19.2376 1.39687 19.9689 3.75C20.7939 6.39375 19.9501 10.4156 16.2282 13.1719Z" fill="#1566F1"/>
</g>
</svg>
