<svg width="28" height="28" viewBox="0 0 28 28" fill="none" xmlns="http://www.w3.org/2000/svg">
<g clip-path="url(#clip0_1771_862)">
<path d="M0.800049 14C0.800049 6.70989 6.70989 0.800049 14 0.800049C21.2902 0.800049 27.2 6.70989 27.2 14C27.2 21.2902 21.2902 27.2 14 27.2C6.70989 27.2 0.800049 21.2902 0.800049 14Z" fill="white"/>
<path d="M10.0588 8.89154C9.73657 8.56936 9.21421 8.56936 8.89203 8.89154C8.56984 9.21372 8.56984 9.73608 8.89203 10.0583L12.8344 14.0006L8.89203 17.943C8.56984 18.2652 8.56984 18.7875 8.89203 19.1097C9.21421 19.4319 9.73657 19.4319 10.0588 19.1097L14.0011 15.1673L17.9435 19.1097C18.2656 19.4319 18.788 19.4319 19.1102 19.1097C19.4324 18.7875 19.4324 18.2652 19.1102 17.943L15.1678 14.0006L19.1102 10.0583C19.4324 9.73608 19.4324 9.21372 19.1102 8.89154C18.788 8.56936 18.2656 8.56936 17.9435 8.89154L14.0011 12.8339L10.0588 8.89154Z" fill="#6A6D70"/>
</g>
<defs>
<clipPath id="clip0_1771_862">
<rect width="26.4" height="26.4" fill="white" transform="translate(0.800049 0.800049)"/>
</clipPath>
</defs>
</svg>
