<svg width="105" height="44" viewBox="0 0 105 44" fill="none" xmlns="http://www.w3.org/2000/svg">
<g id="Group 1248">
<g id="Group 1188">
<g id="Group 1181">
<g id="Group 1109">
<rect id="Rectangle 488" x="0.857422" y="24.3971" width="3.99439" height="10.1177" rx="1.99719" fill="#9CB8EA"/>
<rect id="Rectangle 489" x="9.51196" y="16.8088" width="3.99439" height="17.706" rx="1.99719" fill="#9CB8EA"/>
<rect id="Rectangle 490" x="18.1665" y="21.8678" width="3.99439" height="12.6471" rx="1.99719" fill="#9CB8EA"/>
<rect id="Rectangle 491" x="26.821" y="15.5441" width="3.99439" height="18.9707" rx="1.99719" fill="#9CB8EA"/>
<rect id="Rectangle 492" x="34.8098" y="12.3823" width="3.99439" height="22.1324" rx="1.99719" fill="#9CB8EA"/>
</g>
<g id="Group">
<path id="Vector" d="M85.6122 38.6223L77.5585 30.6863C79.6829 27.8689 80.9415 24.3776 80.9415 20.5996C80.9415 11.2513 73.2516 3.67371 63.7647 3.67371C54.2778 3.67371 46.5879 11.2513 46.5879 20.5996C46.5879 29.9479 54.2778 37.5254 63.7647 37.5254C67.1004 37.5254 70.2142 36.5863 72.8514 34.9625L81.087 43.0778C82.3347 44.3073 84.3608 44.3073 85.6085 43.0778C86.8599 41.8483 86.8599 39.8518 85.6122 38.6223Z" fill="#DCF3EE"/>
<g id="Group_2">
<path id="Vector_2" d="M85.6122 40.4038C84.3645 41.6333 82.3383 41.6333 81.0906 40.4038L65.6199 25.1591C64.3722 23.9296 64.3722 21.9331 65.6199 20.7036C66.8676 19.4741 68.8937 19.4741 70.1414 20.7036L85.6122 35.9483C86.8599 37.1778 86.8599 39.1744 85.6122 40.4038Z" fill="white" stroke="#4D83E1" stroke-width="2" stroke-miterlimit="10"/>
<path id="Vector_3" d="M63.7647 34.8517C73.2512 34.8517 80.9415 27.2738 80.9415 17.9259C80.9415 8.57797 73.2512 1 63.7647 1C54.2782 1 46.5879 8.57797 46.5879 17.9259C46.5879 27.2738 54.2782 34.8517 63.7647 34.8517Z" fill="white" stroke="#4D83E1" stroke-width="2" stroke-miterlimit="10"/>
<path id="Vector_4" d="M63.7647 31.3817C71.3065 31.3817 77.4203 25.3572 77.4203 17.9256C77.4203 10.494 71.3065 4.46948 63.7647 4.46948C56.2229 4.46948 50.1091 10.494 50.1091 17.9256C50.1091 25.3572 56.2229 31.3817 63.7647 31.3817Z" fill="white" stroke="#4D83E1" stroke-width="2" stroke-miterlimit="10"/>
<path id="Vector_5" d="M70.3705 21.1875L65.0232 12.1582C64.463 11.2083 63.0698 11.2083 62.506 12.1582L57.1587 21.1875C56.5912 22.1445 57.2933 23.3453 58.4173 23.3453H69.1119C70.2359 23.3453 70.9344 22.1445 70.3705 21.1875ZM63.1426 15.5169C63.1426 15.1763 63.4227 14.9003 63.7683 14.9003C64.1138 14.9003 64.3939 15.1763 64.3939 15.5169V18.4991C64.3939 18.8397 64.1138 19.1157 63.7683 19.1157C63.4227 19.1157 63.1426 18.8397 63.1426 18.4991V15.5169ZM63.7646 21.1696C63.3718 21.1696 63.0553 20.8577 63.0553 20.4706C63.0553 20.0835 63.3718 19.7716 63.7646 19.7716C64.1575 19.7716 64.474 20.0835 64.474 20.4706C64.474 20.8577 64.1575 21.1696 63.7646 21.1696Z" fill="#9CB8EA"/>
</g>
</g>
</g>
</g>
<g id="Group 1195">
<g id="Group 1181_2">
<g id="Group 1109_2">
<rect id="Rectangle 488_2" x="0.857422" y="24.3971" width="3.99439" height="10.1177" rx="1.99719" fill="#A8E0D3"/>
<rect id="Rectangle 489_2" x="9.51196" y="16.8088" width="3.99439" height="17.706" rx="1.99719" fill="#A8E0D3"/>
<rect id="Rectangle 490_2" x="18.1665" y="21.8678" width="3.99439" height="12.6471" rx="1.99719" fill="#A8E0D3"/>
<rect id="Rectangle 493" x="91.4937" y="21.8678" width="3.99439" height="12.6471" rx="1.99719" fill="#A8E0D3"/>
<rect id="Rectangle 491_2" x="26.821" y="15.5441" width="3.99439" height="18.9707" rx="1.99719" fill="#A8E0D3"/>
<rect id="Rectangle 494" x="100.148" y="15.5441" width="3.99439" height="18.9707" rx="1.99719" fill="#A8E0D3"/>
<rect id="Rectangle 492_2" x="34.8098" y="12.3823" width="3.99439" height="22.1324" rx="1.99719" fill="#A8E0D3"/>
</g>
<g id="Group_3">
<g id="Group_4">
<path id="Vector_6" d="M85.6122 40.4038C84.3645 41.6333 82.3383 41.6333 81.0906 40.4038L65.6199 25.1591C64.3722 23.9296 64.3722 21.9331 65.6199 20.7036C66.8676 19.4741 68.8937 19.4741 70.1414 20.7036L85.6122 35.9483C86.8599 37.1778 86.8599 39.1744 85.6122 40.4038Z" fill="white" stroke="#00B899" stroke-width="2" stroke-miterlimit="10"/>
<path id="Vector_7" d="M63.7647 34.8517C73.2512 34.8517 80.9415 27.2738 80.9415 17.9259C80.9415 8.57797 73.2512 1 63.7647 1C54.2782 1 46.5879 8.57797 46.5879 17.9259C46.5879 27.2738 54.2782 34.8517 63.7647 34.8517Z" fill="white" stroke="#00B899" stroke-width="2" stroke-miterlimit="10"/>
<path id="Vector_8" d="M70.3705 21.1875L65.0232 12.1582C64.463 11.2083 63.0698 11.2083 62.506 12.1582L57.1587 21.1875C56.5912 22.1445 57.2933 23.3453 58.4173 23.3453H69.1119C70.2359 23.3453 70.9344 22.1445 70.3705 21.1875ZM63.1426 15.5169C63.1426 15.1763 63.4227 14.9003 63.7683 14.9003C64.1138 14.9003 64.3939 15.1763 64.3939 15.5169V18.4991C64.3939 18.8397 64.1138 19.1157 63.7683 19.1157C63.4227 19.1157 63.1426 18.8397 63.1426 18.4991V15.5169ZM63.7646 21.1696C63.3718 21.1696 63.0553 20.8577 63.0553 20.4706C63.0553 20.0835 63.3718 19.7716 63.7646 19.7716C64.1575 19.7716 64.474 20.0835 64.474 20.4706C64.474 20.8577 64.1575 21.1696 63.7646 21.1696Z" fill="#D48647"/>
</g>
</g>
</g>
</g>
</g>
</svg>
