<svg width="14" height="14" viewBox="0 0 14 14" fill="none" xmlns="http://www.w3.org/2000/svg">
<g clip-path="url(#clip0_221_1429)">
<circle cx="7.00005" cy="6.99957" r="5.81389" fill="#00B899" stroke="#00B899" stroke-width="0.816666"/>
<path d="M6.73475 4.76482C6.90175 4.65896 7.08599 4.64861 7.10324 4.64781H8.99573C9.24651 4.64781 9.4498 4.4429 9.4498 4.19012C9.4498 3.93734 9.24651 3.73242 8.99573 3.73242H7.09854C7.03189 3.73242 6.43487 3.74635 5.98484 4.20962C5.67437 4.52841 5.5207 4.96502 5.52697 5.50749L5.52708 5.86005H4.9644C4.73542 5.86005 4.5498 6.04715 4.5498 6.27794C4.5498 6.50874 4.73542 6.69584 4.9644 6.69584H5.52708V7.29284H4.9644C4.73542 7.29284 4.5498 7.47993 4.5498 7.71073C4.5498 7.94153 4.73542 8.12863 4.9644 8.12863H5.52708L5.52697 9.81136C5.52697 10.0623 5.72881 10.2658 5.97778 10.2658C6.22676 10.2658 6.42859 10.0623 6.42859 9.81136L6.4287 8.12863H8.42281C8.65178 8.12863 8.8374 7.94153 8.8374 7.71073C8.8374 7.47993 8.65178 7.29284 8.4228 7.29284H6.4287V6.69584H8.42281C8.65178 6.69584 8.8374 6.50874 8.8374 6.27794C8.8374 6.04715 8.65178 5.86005 8.4228 5.86005H6.4287L6.42859 5.49873C6.42389 5.13854 6.52385 4.89855 6.73475 4.76482Z" fill="#F6F9FD" stroke="#F6F9FD" stroke-width="0.155556"/>
</g>
<defs>
<clipPath id="clip0_221_1429">
<rect width="12.4444" height="12.4444" fill="white" transform="translate(0.777832 0.777344)"/>
</clipPath>
</defs>
</svg>
