<svg width="100" height="100" viewBox="0 0 100 100" fill="none" xmlns="http://www.w3.org/2000/svg">
<g id="Frame 1000003529">
<g id="Group 1000002310">
<g id="Group">
<g id="Isolation_Mode">
<path id="Vector" d="M28.2361 49.7117L26.9665 54.2678L23.4834 68.2676L49.0392 92.8514L84.7015 89.3627L88.797 76.0202L91.707 66.5429L28.2361 49.7117Z" fill="url(#paint0_linear_221_1942)"/>
<path id="Vector_2" d="M57.5895 61.2509L49.0391 92.8515L84.7014 89.3628L91.7069 66.5429L57.5895 61.2509Z" fill="url(#paint1_linear_221_1942)"/>
<g id="Vector_3" style="mix-blend-mode:multiply" opacity="0.1">
<path d="M88.7968 76.0202L91.7069 66.5429L28.236 49.7117L26.9663 54.2678L35.1291 61.4531L32.41 65.1272L37.9605 64.1721L39.6908 71.5315L41.3481 67.7563L53.1569 78.0539L55.258 78.5314L72.2971 77.4528L71.4038 81.5595L78.0161 76.2899L80.6902 79.9415L81.134 76.2955L88.7968 76.0202Z" fill="#876844"/>
</g>
<path id="Vector_4" d="M64.0502 42.0152L26.6406 41.0096L58.3761 68.1103L95.8699 65.998L64.0502 42.0152Z" fill="url(#paint2_radial_221_1942)"/>
<path id="Vector_5" style="mix-blend-mode:overlay" opacity="0.61" d="M64.0502 42.0152L26.6406 41.0096L58.6626 67.2395L95.8699 65.998L64.0502 42.0152Z" fill="url(#paint3_linear_221_1942)"/>
<g id="Vector_6" style="mix-blend-mode:multiply" opacity="0.2">
<path d="M44.3369 55.9475L46.1403 56.9869L60.2636 53.5206L72.9488 67.5429L78.6173 65.8463L64.2411 50.442L49.8649 51.9813L44.3369 55.9475Z" fill="#876844"/>
</g>
<path id="Vector_7" d="M95.8698 65.998L58.376 68.1103L26.6405 41.0096L24.2754 50.1049L55.9659 77.1495L93.1957 74.245L95.8698 65.998Z" fill="url(#paint4_linear_221_1942)"/>
<path id="Vector_8" d="M56.1401 77.672L93.3699 74.7619L96.044 66.5204L58.5502 68.6328L56.1401 77.672Z" fill="url(#paint5_linear_221_1942)"/>
<g id="Vector_9" style="mix-blend-mode:multiply" opacity="0.2">
<path d="M80.4375 62.2114L84.1847 66.8012C84.1847 66.8012 83.4375 74.9528 83.0611 75.0483C82.6847 75.1438 80.4375 75.1438 80.4375 75.1438L81.2802 68.1158L76.7803 62.6833L80.4375 62.217V62.2114Z" fill="#876844"/>
</g>
<path id="Vector_10" d="M60.8257 51.8184C60.8257 51.8184 70.2076 64.1328 72.9491 67.5429C74.0671 68.9361 71.6626 80.0258 71.6626 80.0258C71.6626 80.0258 76.2299 76.0989 77.7355 74.0877C77.7355 74.0877 79.9714 76.2956 80.6568 77.9753C81.9265 73.1046 83.1006 67.4811 81.7579 65.9755C78.1063 61.8801 75.3142 57.6835 69.1795 52.9589L60.8313 51.8184H60.8257Z" fill="url(#paint6_radial_221_1942)"/>
<g id="Vector_11" style="mix-blend-mode:multiply" opacity="0.2">
<path d="M62.8533 52.1611C62.8533 52.1611 63.0892 53.9083 66.1678 57.2453C69.2464 60.5823 75.1171 64.4362 77.207 65.0767C79.7856 65.8632 87.6731 64.7733 87.4428 59.279C87.4428 59.279 81.9541 62.5093 78.4879 61.7396C75.0216 60.97 62.8477 52.1611 62.8477 52.1611H62.8533Z" fill="#876844"/>
</g>
<path id="Vector_12" d="M32.4102 65.1272L37.3146 62.9363L39.4157 70.4193C39.4157 70.4193 42.8033 56.8521 44.3369 55.9476C45.8706 55.0431 57.2244 52.5094 60.758 52.2735L56.6963 47.8915C56.6963 47.8915 38.5674 49.2455 37.6404 50.5937C34.4832 55.1779 32.4102 65.1272 32.4102 65.1272Z" fill="url(#paint7_radial_221_1942)"/>
<path id="Vector_13" style="mix-blend-mode:multiply" d="M42.4604 50.5319C42.4604 50.5319 53.8816 48.1667 55.0614 48.1667C56.2411 48.1667 59.1568 49.3914 59.6006 50.4869C60.0501 51.5824 59.9321 50.9195 51.5165 53.0262C45.7413 54.47 44.6908 54.47 44.6908 54.47L42.4604 50.5319Z" fill="url(#paint8_linear_221_1942)"/>
<path id="Vector_14" d="M89.9432 52.7285C89.3758 54.6273 89.0837 60.5542 84.668 60.1778C79.8647 59.7621 77.3647 57.3745 77.3647 57.3745C77.3647 57.3745 86.2747 56.1105 88.932 50.4364L89.9432 52.7285Z" fill="url(#paint9_radial_221_1942)"/>
<path id="Vector_15" d="M88.4599 57.8745C90.1116 52.9701 90.325 49.6443 83.7296 47.4926C77.9994 45.6275 66.7187 50.8128 66.7187 50.8128L63.2749 46.8522C63.2749 46.8522 69.4771 38.4254 81.6005 40.1557C91.1115 41.5096 91.1621 48.105 90.6846 52.4027C90.4599 54.4195 88.4599 57.8745 88.4599 57.8745Z" fill="url(#paint10_radial_221_1942)"/>
<path id="Vector_16" d="M62.4829 46.7174C63.3873 46.6725 67.7468 49.2342 69.421 50.7623C72.3647 53.4476 78.3478 58.2846 80.6736 58.9981C84.9095 60.3015 87.4431 59.2734 87.4431 59.2734C87.4431 59.2734 80.0893 67.5879 71.3872 60.088C62.6851 52.5937 59.9941 50.0881 59.9941 50.0881L62.4829 46.7118V46.7174Z" fill="url(#paint11_radial_221_1942)"/>
<path id="Vector_17" style="mix-blend-mode:multiply" d="M61.9038 51.5319C62.7802 52.2341 66.2914 55.3914 68.9823 57.4981C71.6733 59.6048 73.0778 57.9082 72.5497 56.3858C72.0216 54.8633 69.8587 50.3016 66.2914 48.9589C62.724 47.6162 61.9038 51.5319 61.9038 51.5319Z" fill="url(#paint12_linear_221_1942)"/>
<path id="Vector_18" d="M44.5337 29.3131C43.4438 30.9086 40.045 34.0883 41.7753 38.2287C43.5112 42.3691 49.41 43.2286 49.41 43.2286C49.41 43.2286 44.7415 35.2344 49.8538 28.639L44.5337 29.3131Z" fill="url(#paint13_radial_221_1942)"/>
<path id="Vector_19" d="M41.3652 35.0265C43.309 28.9704 47.7078 27.2907 53.2695 31.785C57.674 35.3467 56.8369 45.8072 56.8369 45.8072L62.7357 47.7623C62.7357 47.7623 67.348 38.768 60.6065 29.0603C56.6684 23.3862 52.0505 24.7177 46.4831 27.8525C42.0281 30.3636 41.3652 35.0265 41.3652 35.0265Z" fill="url(#paint14_radial_221_1942)"/>
<path id="Vector_20" style="mix-blend-mode:multiply" d="M51.668 29.6053C54.2971 31.1839 57.5724 34.7513 57.1061 45.2174L63.5947 46.0376C63.5947 46.0376 63.8026 43.8972 63.5386 40.1894C63.2745 36.4816 51.668 29.6053 51.668 29.6053Z" fill="url(#paint15_linear_221_1942)"/>
<path id="Vector_21" d="M63.9153 47.7511C63.5333 47.0096 59.73 45.122 57.8873 44.7287C54.6402 44.0321 46.3257 42.1726 44.5898 41.0546C40.8763 38.667 41.3651 35.0266 41.3651 35.0266C41.3651 35.0266 39.8651 45.9309 50.3649 48.8017C59.6008 51.3241 62.6457 51.7455 62.6457 51.7455L63.9153 47.7511Z" fill="url(#paint16_radial_221_1942)"/>
<path id="Vector_22" d="M62.8536 52.1611C64.9266 51.0038 69.6794 47.1612 66.7862 45.0095C63.8929 42.8579 61.5896 42.8073 60.6289 43.077C59.6683 43.3522 57.2863 50.6499 59.5054 51.8914C61.7244 53.133 62.275 52.4869 62.8593 52.1611H62.8536Z" fill="url(#paint17_radial_221_1942)"/>
</g>
</g>
<path id="Vector_23" d="M37.8528 51.4529C38.984 51.4529 38.984 48.9077 37.8528 48.9077C36.7216 48.9077 36.7216 51.4529 37.8528 51.4529Z" fill="url(#paint18_linear_221_1942)"/>
<path id="Vector_24" d="M17.067 48.9077C18.7638 48.9077 18.7638 46.3625 17.067 46.3625C15.3702 46.3625 15.3702 48.9077 17.067 48.9077Z" fill="url(#paint19_linear_221_1942)"/>
<g id="Group 1000002276">
<path id="Vector_25" d="M8.46247 19.0661C9.3304 19.0661 9.3304 17.1133 8.46247 17.1133C7.59454 17.1133 7.59454 19.0661 8.46247 19.0661Z" fill="url(#paint20_linear_221_1942)"/>
<path id="Vector_26" d="M20.1793 25.5756C21.0472 25.5756 21.0472 23.6227 20.1793 23.6227C19.3113 23.6227 19.3113 25.5756 20.1793 25.5756Z" fill="url(#paint21_linear_221_1942)"/>
<path id="Vector_27" d="M0 20.5177L6.93931 16.2065L7.34661 8L13.563 13.3171L21.434 11.1769L18.3334 18.7778L22.7831 25.6602L14.6576 25.0341L9.54091 31.4341L7.61644 23.4482L0 20.5177Z" fill="url(#paint22_linear_221_1942)"/>
<path id="Vector_28" d="M21.4809 11.2547L18.4281 19.0778L12.3677 19.717L21.4809 11.2547Z" fill="url(#paint23_linear_221_1942)"/>
<path id="Vector_29" d="M7.16016 8L13.6696 13.4655L12.2195 19.717L7.16016 8Z" fill="url(#paint24_linear_221_1942)"/>
<path id="Vector_30" d="M7.04748 16.4623L0 20.368C5.83239 19.8752 9.77236 19.5729 12.368 19.3544L7.04748 16.4623Z" fill="url(#paint25_linear_221_1942)"/>
<path id="Vector_31" d="M9.76416 31.434L14.9717 25.2033L12.4483 19.717L9.76416 31.434Z" fill="url(#paint26_linear_221_1942)"/>
<path id="Vector_32" d="M18.4128 19.0661L12.3677 19.6535L22.7828 25.5756L18.4128 19.0661Z" fill="url(#paint27_linear_221_1942)"/>
<path id="Vector_33" d="M18.4128 19.0661L12.3677 19.6535L22.7828 25.5756L18.4128 19.0661Z" fill="url(#paint28_linear_221_1942)"/>
<path id="Vector_34" d="M12.368 19.717L7.73516 23.6227L0 20.7961L12.368 19.717Z" fill="url(#paint29_linear_221_1942)"/>
<path id="Vector_35" d="M22.7828 25.5755L14.8027 24.9896L12.3677 19.717L22.7828 25.5755Z" fill="url(#paint30_linear_221_1942)"/>
<path id="Vector_36" d="M21.4809 11.2547L13.7312 13.4574L12.3677 19.717L21.4809 11.2547Z" fill="url(#paint31_linear_221_1942)"/>
</g>
<g id="Group 1000002277">
<path id="Vector_37" d="M87.2994 21.3485C87.7336 21.7827 88.7106 20.8057 88.2763 20.3715C87.8421 19.9373 86.8652 20.9143 87.2994 21.3485Z" fill="url(#paint32_linear_221_1942)"/>
<path id="Vector_38" d="M89.9048 30.4669C90.339 30.9012 91.316 29.9242 90.8818 29.49C90.4476 29.0558 89.4706 30.0327 89.9048 30.4669Z" fill="url(#paint33_linear_221_1942)"/>
<path id="Vector_39" d="M82.3396 17.8411L87.9681 19.156L92.2775 15.2541L92.7274 21.0241L97.7358 23.8912L92.382 26.1427L91.165 31.812L87.4131 27.4336L81.6515 28.0756L84.6839 23.1176L82.3396 17.8411Z" fill="url(#paint34_linear_221_1942)"/>
<path id="Vector_40" d="M97.7204 23.9537L92.2793 26.3402L88.9276 23.628L97.7204 23.9537Z" fill="url(#paint35_linear_221_1942)"/>
<path id="Vector_41" d="M92.1841 15.1609L92.7064 21.1518L88.8533 23.5539L92.1841 15.1609Z" fill="url(#paint36_linear_221_1942)"/>
<path id="Vector_42" d="M87.8944 19.338L82.4147 17.7662C85.5791 20.4375 87.7014 22.2574 89.1093 23.4466L87.8944 19.338Z" fill="url(#paint37_linear_221_1942)"/>
<path id="Vector_43" d="M81.7631 28.1874L87.4856 27.6755L88.9678 23.6683L81.7631 28.1874Z" fill="url(#paint38_linear_221_1942)"/>
<path id="Vector_44" d="M92.2777 26.3267L88.9596 23.5963L91.2074 31.7696L92.2777 26.3267Z" fill="url(#paint39_linear_221_1942)"/>
<path id="Vector_45" d="M92.2777 26.3267L88.9596 23.5963L91.2074 31.7696L92.2777 26.3267Z" fill="url(#paint40_linear_221_1942)"/>
<path id="Vector_46" d="M88.9278 23.6281L84.6561 23.2643L82.2004 17.9804L88.9278 23.6281Z" fill="url(#paint41_linear_221_1942)"/>
<path id="Vector_47" d="M91.2073 31.7696L87.5081 27.4842L88.9277 23.6281L91.2073 31.7696Z" fill="url(#paint42_linear_221_1942)"/>
<path id="Vector_48" d="M97.7204 23.9537L92.7413 21.1786L88.9276 23.628L97.7204 23.9537Z" fill="url(#paint43_linear_221_1942)"/>
</g>
</g>
</g>
<defs>
<linearGradient id="paint0_linear_221_1942" x1="39.4775" y1="89.7255" x2="56.0353" y2="70.0488" gradientUnits="userSpaceOnUse">
<stop offset="0.3" stop-color="#F5F0D5"/>
<stop offset="0.63" stop-color="#EAE0C1"/>
<stop offset="0.79" stop-color="#CAB794"/>
<stop offset="0.95" stop-color="#7D605F"/>
</linearGradient>
<linearGradient id="paint1_linear_221_1942" x1="69.3795" y1="102.014" x2="71.0124" y2="65.1642" gradientUnits="userSpaceOnUse">
<stop offset="0.17" stop-color="#EAE0C1"/>
<stop offset="0.48" stop-color="#CAB794"/>
<stop offset="0.81" stop-color="#8B765F"/>
</linearGradient>
<radialGradient id="paint2_radial_221_1942" cx="0" cy="0" r="1" gradientUnits="userSpaceOnUse" gradientTransform="translate(62.5449 51.0424) rotate(34.92) scale(48.5329 24.2665)">
<stop offset="0.12" stop-color="#A08866"/>
<stop offset="0.26" stop-color="#CAB794"/>
<stop offset="0.84" stop-color="#F5F0D5"/>
</radialGradient>
<linearGradient id="paint3_linear_221_1942" x1="51.0897" y1="90.2391" x2="66.5613" y2="34.3187" gradientUnits="userSpaceOnUse">
<stop offset="0.16" stop-color="#FFD539"/>
<stop offset="0.62" stop-color="white" stop-opacity="0"/>
</linearGradient>
<linearGradient id="paint4_linear_221_1942" x1="57.4195" y1="10.4252" x2="61.4827" y2="83.5994" gradientUnits="userSpaceOnUse">
<stop stop-color="#CAB794"/>
<stop offset="0.6" stop-color="#F5F0D5"/>
</linearGradient>
<linearGradient id="paint5_linear_221_1942" x1="8.16313" y1="76.3733" x2="104.987" y2="70.0369" gradientUnits="userSpaceOnUse">
<stop offset="0.19" stop-color="#8B765F"/>
<stop offset="0.52" stop-color="#CAB794"/>
<stop offset="1" stop-color="#E1D5B5"/>
</linearGradient>
<radialGradient id="paint6_radial_221_1942" cx="0" cy="0" r="1" gradientUnits="userSpaceOnUse" gradientTransform="translate(75.6103 65.026) rotate(-5.8) scale(39.3308 18.0922)">
<stop stop-color="#E9C27F"/>
<stop offset="0.11" stop-color="#946036"/>
<stop offset="0.17" stop-color="#B37B46"/>
<stop offset="0.33" stop-color="#E3BB7B"/>
<stop offset="0.42" stop-color="#FDDF98"/>
<stop offset="0.52" stop-color="#B37B46"/>
<stop offset="0.58" stop-color="#C8975D"/>
<stop offset="0.61" stop-color="#D2A467"/>
<stop offset="0.79" stop-color="#946036"/>
<stop offset="0.89" stop-color="#6C4F36"/>
</radialGradient>
<radialGradient id="paint7_radial_221_1942" cx="0" cy="0" r="1" gradientUnits="userSpaceOnUse" gradientTransform="translate(50.6548 57.424) rotate(-144.61) scale(82.729 18.2004)">
<stop offset="0.11" stop-color="#6C4F36"/>
<stop offset="0.18" stop-color="#946036"/>
<stop offset="0.32" stop-color="#D2A467"/>
<stop offset="0.35" stop-color="#DAB071"/>
<stop offset="0.41" stop-color="#F2CF8B"/>
<stop offset="0.44" stop-color="#FDDF98"/>
<stop offset="0.5" stop-color="#E3BB7B"/>
<stop offset="0.61" stop-color="#B37B46"/>
<stop offset="0.67" stop-color="#B37B46"/>
<stop offset="0.76" stop-color="#DEB676"/>
<stop offset="0.89" stop-color="#946036"/>
<stop offset="1" stop-color="#E9C27F"/>
</radialGradient>
<linearGradient id="paint8_linear_221_1942" x1="60.8197" y1="49.6723" x2="43.3481" y2="52.2959" gradientUnits="userSpaceOnUse">
<stop stop-color="#AA8875"/>
<stop offset="0.73" stop-color="#C9BDA5" stop-opacity="0"/>
</linearGradient>
<radialGradient id="paint9_radial_221_1942" cx="0" cy="0" r="1" gradientUnits="userSpaceOnUse" gradientTransform="translate(81.6087 45.2209) rotate(-108.92) scale(14.9054 8.11516)">
<stop stop-color="#E9C27F"/>
<stop offset="0.19" stop-color="#B37B46"/>
<stop offset="0.49" stop-color="#8F5C33"/>
<stop offset="0.69" stop-color="#7C4C2A"/>
</radialGradient>
<radialGradient id="paint10_radial_221_1942" cx="0" cy="0" r="1" gradientUnits="userSpaceOnUse" gradientTransform="translate(74.4785 36.1508) rotate(-108.92) scale(29.2647 15.933)">
<stop offset="0.08" stop-color="#946036"/>
<stop offset="0.14" stop-color="#986539"/>
<stop offset="0.22" stop-color="#A77445"/>
<stop offset="0.3" stop-color="#BE8E57"/>
<stop offset="0.36" stop-color="#D2A467"/>
<stop offset="0.46" stop-color="#C8975D"/>
<stop offset="0.61" stop-color="#B37B46"/>
<stop offset="0.74" stop-color="#FDDF98"/>
<stop offset="0.78" stop-color="#E3BB7B"/>
<stop offset="0.83" stop-color="#B37B46"/>
<stop offset="0.89" stop-color="#946036"/>
<stop offset="1" stop-color="#E9C27F"/>
</radialGradient>
<radialGradient id="paint11_radial_221_1942" cx="0" cy="0" r="1" gradientUnits="userSpaceOnUse" gradientTransform="translate(67.848 42.0657) rotate(-108.92) scale(24.3401 13.2518)">
<stop offset="0.21" stop-color="#946036"/>
<stop offset="0.39" stop-color="#D2A467"/>
<stop offset="0.48" stop-color="#C8975D"/>
<stop offset="0.61" stop-color="#B37B46"/>
<stop offset="0.74" stop-color="#FDDF98"/>
<stop offset="0.78" stop-color="#E3BB7B"/>
<stop offset="0.83" stop-color="#B37B46"/>
<stop offset="0.89" stop-color="#946036"/>
<stop offset="1" stop-color="#E9C27F"/>
</radialGradient>
<linearGradient id="paint12_linear_221_1942" x1="67.4655" y1="46.6163" x2="67.1959" y2="57.6835" gradientUnits="userSpaceOnUse">
<stop stop-color="#AA8875"/>
<stop offset="0.73" stop-color="#C9BDA5" stop-opacity="0"/>
</linearGradient>
<radialGradient id="paint13_radial_221_1942" cx="0" cy="0" r="1" gradientUnits="userSpaceOnUse" gradientTransform="translate(57.5691 30.3573) rotate(-21.01) scale(15.2361 8.87166)">
<stop stop-color="#E9C27F"/>
<stop offset="0.19" stop-color="#B37B46"/>
<stop offset="0.49" stop-color="#8F5C33"/>
<stop offset="0.69" stop-color="#7C4C2A"/>
</radialGradient>
<radialGradient id="paint14_radial_221_1942" cx="0" cy="0" r="1" gradientUnits="userSpaceOnUse" gradientTransform="translate(66.8606 30.5061) rotate(-21.01) scale(27.0682 15.7612)">
<stop offset="0.21" stop-color="#946036"/>
<stop offset="0.34" stop-color="#D2A467"/>
<stop offset="0.44" stop-color="#C8975D"/>
<stop offset="0.61" stop-color="#B37B46"/>
<stop offset="0.74" stop-color="#FDDF98"/>
<stop offset="0.78" stop-color="#E3BB7B"/>
<stop offset="0.83" stop-color="#B37B46"/>
<stop offset="0.89" stop-color="#946036"/>
<stop offset="1" stop-color="#E9C27F"/>
</radialGradient>
<linearGradient id="paint15_linear_221_1942" x1="57.8476" y1="29.8693" x2="57.3982" y2="48.3747" gradientUnits="userSpaceOnUse">
<stop offset="0.27" stop-color="#C9BDA5" stop-opacity="0"/>
<stop offset="1" stop-color="#AA8875"/>
</linearGradient>
<radialGradient id="paint16_radial_221_1942" cx="0" cy="0" r="1" gradientUnits="userSpaceOnUse" gradientTransform="translate(66.4588 39.1202) rotate(-21.01) scale(23.1937 13.5052)">
<stop offset="0.21" stop-color="#946036"/>
<stop offset="0.39" stop-color="#D2A467"/>
<stop offset="0.48" stop-color="#C8975D"/>
<stop offset="0.61" stop-color="#B37B46"/>
<stop offset="0.74" stop-color="#FDDF98"/>
<stop offset="0.78" stop-color="#E3BB7B"/>
<stop offset="0.83" stop-color="#B37B46"/>
<stop offset="0.89" stop-color="#946036"/>
<stop offset="1" stop-color="#E9C27F"/>
</radialGradient>
<radialGradient id="paint17_radial_221_1942" cx="0" cy="0" r="1" gradientUnits="userSpaceOnUse" gradientTransform="translate(60.9483 46.9101) rotate(-22.3) scale(14.2133 8.67009)">
<stop offset="0.18" stop-color="#946036"/>
<stop offset="0.23" stop-color="#986539"/>
<stop offset="0.3" stop-color="#A77445"/>
<stop offset="0.38" stop-color="#BE8E57"/>
<stop offset="0.43" stop-color="#D2A467"/>
<stop offset="0.5" stop-color="#C8975D"/>
<stop offset="0.61" stop-color="#B37B46"/>
<stop offset="0.74" stop-color="#FDDF98"/>
<stop offset="0.78" stop-color="#E3BB7B"/>
<stop offset="0.83" stop-color="#B37B46"/>
<stop offset="1" stop-color="#E9C27F"/>
</radialGradient>
<linearGradient id="paint18_linear_221_1942" x1="37.1612" y1="49.4083" x2="38.8822" y2="50.3302" gradientUnits="userSpaceOnUse">
<stop stop-color="#F1ECCF"/>
<stop offset="0.28" stop-color="#EBE5C9"/>
<stop offset="0.65" stop-color="#DCD3B9"/>
<stop offset="1" stop-color="#C9BDA5"/>
</linearGradient>
<linearGradient id="paint19_linear_221_1942" x1="16.0296" y1="46.8631" x2="18.0488" y2="48.4767" gradientUnits="userSpaceOnUse">
<stop stop-color="#F1ECCF"/>
<stop offset="0.28" stop-color="#EBE5C9"/>
<stop offset="0.65" stop-color="#DCD3B9"/>
<stop offset="1" stop-color="#C9BDA5"/>
</linearGradient>
<linearGradient id="paint20_linear_221_1942" x1="7.92732" y1="17.4973" x2="9.24951" y2="18.1988" gradientUnits="userSpaceOnUse">
<stop stop-color="#F1ECCF"/>
<stop offset="0.28" stop-color="#EBE5C9"/>
<stop offset="0.65" stop-color="#DCD3B9"/>
<stop offset="1" stop-color="#C9BDA5"/>
</linearGradient>
<linearGradient id="paint21_linear_221_1942" x1="19.6486" y1="24.0068" x2="20.9669" y2="24.7092" gradientUnits="userSpaceOnUse">
<stop stop-color="#F1ECCF"/>
<stop offset="0.28" stop-color="#EBE5C9"/>
<stop offset="0.65" stop-color="#DCD3B9"/>
<stop offset="1" stop-color="#C9BDA5"/>
</linearGradient>
<linearGradient id="paint22_linear_221_1942" x1="16.3803" y1="76.4726" x2="8.61944" y2="-5.27589" gradientUnits="userSpaceOnUse">
<stop offset="0.21" stop-color="#946036"/>
<stop offset="0.68" stop-color="#D2A467"/>
<stop offset="0.73" stop-color="#C6975E"/>
<stop offset="0.83" stop-color="#A97847"/>
<stop offset="0.89" stop-color="#946036"/>
<stop offset="1" stop-color="#E9C27F"/>
</linearGradient>
<linearGradient id="paint23_linear_221_1942" x1="-5.50292" y1="37.9252" x2="26.6282" y2="12.0549" gradientUnits="userSpaceOnUse">
<stop offset="0.21" stop-color="#946036"/>
<stop offset="0.34" stop-color="#D2A467"/>
<stop offset="0.43" stop-color="#C8975D"/>
<stop offset="0.57" stop-color="#B37B46"/>
<stop offset="0.79" stop-color="#FDDF98"/>
<stop offset="0.87" stop-color="#E3BB7B"/>
<stop offset="0.99" stop-color="#B37B46"/>
</linearGradient>
<linearGradient id="paint24_linear_221_1942" x1="14.6612" y1="29.8461" x2="0.385257" y2="-35.771" gradientUnits="userSpaceOnUse">
<stop stop-color="#E9C27F"/>
<stop offset="0.11" stop-color="#946036"/>
<stop offset="0.17" stop-color="#B37B46"/>
<stop offset="0.22" stop-color="#E3BB7B"/>
<stop offset="0.26" stop-color="#FDDF98"/>
<stop offset="0.39" stop-color="#B37B46"/>
<stop offset="0.56" stop-color="#C8975D"/>
<stop offset="0.66" stop-color="#D2A467"/>
<stop offset="0.79" stop-color="#946036"/>
</linearGradient>
<linearGradient id="paint25_linear_221_1942" x1="-4.80345" y1="16.8529" x2="26.3474" y2="24.0726" gradientUnits="userSpaceOnUse">
<stop stop-color="#E9C27F"/>
<stop offset="0.11" stop-color="#946036"/>
<stop offset="0.17" stop-color="#B37B46"/>
<stop offset="0.37" stop-color="#E3BB7B"/>
<stop offset="0.49" stop-color="#FDDF98"/>
<stop offset="0.81" stop-color="#D2A467"/>
<stop offset="0.99" stop-color="#946036"/>
</linearGradient>
<linearGradient id="paint26_linear_221_1942" x1="7.71222" y1="50.4261" x2="13.8338" y2="19.1455" gradientUnits="userSpaceOnUse">
<stop offset="0.21" stop-color="#946036"/>
<stop offset="0.34" stop-color="#D2A467"/>
<stop offset="0.38" stop-color="#C8975D"/>
<stop offset="0.44" stop-color="#B37B46"/>
<stop offset="0.74" stop-color="#FDDF98"/>
<stop offset="0.84" stop-color="#E3BB7B"/>
<stop offset="1" stop-color="#B37B46"/>
</linearGradient>
<linearGradient id="paint27_linear_221_1942" x1="-6.15758" y1="5.68311" x2="30.2527" y2="30.2039" gradientUnits="userSpaceOnUse">
<stop offset="0.21" stop-color="#946036"/>
<stop offset="0.34" stop-color="#D2A467"/>
<stop offset="0.41" stop-color="#C8975D"/>
<stop offset="0.53" stop-color="#B37B46"/>
<stop offset="0.76" stop-color="#FDDF98"/>
<stop offset="0.81" stop-color="#E3BB7B"/>
<stop offset="0.89" stop-color="#B37B46"/>
<stop offset="1" stop-color="#E9C27F"/>
</linearGradient>
<linearGradient id="paint28_linear_221_1942" x1="-6.15758" y1="5.68311" x2="30.2527" y2="30.2039" gradientUnits="userSpaceOnUse">
<stop offset="0.21" stop-color="#946036"/>
<stop offset="0.34" stop-color="#D2A467"/>
<stop offset="0.41" stop-color="#C8975D"/>
<stop offset="0.53" stop-color="#B37B46"/>
<stop offset="0.76" stop-color="#FDDF98"/>
<stop offset="0.81" stop-color="#E3BB7B"/>
<stop offset="0.89" stop-color="#B37B46"/>
<stop offset="1" stop-color="#E9C27F"/>
</linearGradient>
<linearGradient id="paint29_linear_221_1942" x1="19.4878" y1="17.8161" x2="-3.77178" y2="24.9529" gradientUnits="userSpaceOnUse">
<stop offset="0.21" stop-color="#946036"/>
<stop offset="0.4" stop-color="#B37B46"/>
<stop offset="0.7" stop-color="#FDDF98"/>
<stop offset="0.78" stop-color="#DFBB7C"/>
<stop offset="0.96" stop-color="#946036"/>
<stop offset="1" stop-color="#E9C27F"/>
</linearGradient>
<linearGradient id="paint30_linear_221_1942" x1="1.77753" y1="13.0565" x2="45.7594" y2="47.3247" gradientUnits="userSpaceOnUse">
<stop offset="0.21" stop-color="#946036"/>
<stop offset="0.34" stop-color="#D2A467"/>
<stop offset="0.44" stop-color="#C8975D"/>
<stop offset="0.61" stop-color="#B37B46"/>
<stop offset="0.74" stop-color="#FDDF98"/>
<stop offset="0.78" stop-color="#E3BB7B"/>
<stop offset="0.83" stop-color="#B37B46"/>
<stop offset="0.89" stop-color="#946036"/>
<stop offset="1" stop-color="#E9C27F"/>
</linearGradient>
<linearGradient id="paint31_linear_221_1942" x1="3.44993" y1="32.1992" x2="22.9561" y2="7.57224" gradientUnits="userSpaceOnUse">
<stop offset="0.21" stop-color="#946036"/>
<stop offset="0.47" stop-color="#946036"/>
<stop offset="0.63" stop-color="#D2A467"/>
<stop offset="0.68" stop-color="#DAB071"/>
<stop offset="0.76" stop-color="#F2CF8B"/>
<stop offset="0.8" stop-color="#FDDF98"/>
<stop offset="1" stop-color="#E9C27F"/>
</linearGradient>
<linearGradient id="paint32_linear_221_1942" x1="87.8165" y1="20.2959" x2="88.127" y2="21.3083" gradientUnits="userSpaceOnUse">
<stop stop-color="#F1ECCF"/>
<stop offset="0.28" stop-color="#EBE5C9"/>
<stop offset="0.65" stop-color="#DCD3B9"/>
<stop offset="1" stop-color="#C9BDA5"/>
</linearGradient>
<linearGradient id="paint33_linear_221_1942" x1="90.4242" y1="29.4166" x2="90.7323" y2="30.4275" gradientUnits="userSpaceOnUse">
<stop stop-color="#F1ECCF"/>
<stop offset="0.28" stop-color="#EBE5C9"/>
<stop offset="0.65" stop-color="#DCD3B9"/>
<stop offset="1" stop-color="#C9BDA5"/>
</linearGradient>
<linearGradient id="paint34_linear_221_1942" x1="62.541" y1="54.0294" x2="99.556" y2="9.24918" gradientUnits="userSpaceOnUse">
<stop offset="0.21" stop-color="#946036"/>
<stop offset="0.68" stop-color="#D2A467"/>
<stop offset="0.73" stop-color="#C6975E"/>
<stop offset="0.83" stop-color="#A97847"/>
<stop offset="0.89" stop-color="#946036"/>
<stop offset="1" stop-color="#E9C27F"/>
</linearGradient>
<linearGradient id="paint35_linear_221_1942" x1="70.8779" y1="23.7969" x2="99.8951" y2="26.9291" gradientUnits="userSpaceOnUse">
<stop offset="0.21" stop-color="#946036"/>
<stop offset="0.34" stop-color="#D2A467"/>
<stop offset="0.43" stop-color="#C8975D"/>
<stop offset="0.57" stop-color="#B37B46"/>
<stop offset="0.79" stop-color="#FDDF98"/>
<stop offset="0.87" stop-color="#E3BB7B"/>
<stop offset="0.99" stop-color="#B37B46"/>
</linearGradient>
<linearGradient id="paint36_linear_221_1942" x1="85.0075" y1="29.8429" x2="110.693" y2="-10.1264" gradientUnits="userSpaceOnUse">
<stop stop-color="#E9C27F"/>
<stop offset="0.11" stop-color="#946036"/>
<stop offset="0.17" stop-color="#B37B46"/>
<stop offset="0.22" stop-color="#E3BB7B"/>
<stop offset="0.26" stop-color="#FDDF98"/>
<stop offset="0.39" stop-color="#B37B46"/>
<stop offset="0.56" stop-color="#C8975D"/>
<stop offset="0.66" stop-color="#D2A467"/>
<stop offset="0.79" stop-color="#946036"/>
</linearGradient>
<linearGradient id="paint37_linear_221_1942" x1="81.7702" y1="13.6046" x2="93.7426" y2="32.8008" gradientUnits="userSpaceOnUse">
<stop stop-color="#E9C27F"/>
<stop offset="0.11" stop-color="#946036"/>
<stop offset="0.17" stop-color="#B37B46"/>
<stop offset="0.37" stop-color="#E3BB7B"/>
<stop offset="0.49" stop-color="#FDDF98"/>
<stop offset="0.81" stop-color="#D2A467"/>
<stop offset="0.99" stop-color="#946036"/>
</linearGradient>
<linearGradient id="paint38_linear_221_1942" x1="71.2351" y1="36.6623" x2="89.9469" y2="24.0756" gradientUnits="userSpaceOnUse">
<stop offset="0.21" stop-color="#946036"/>
<stop offset="0.34" stop-color="#D2A467"/>
<stop offset="0.38" stop-color="#C8975D"/>
<stop offset="0.44" stop-color="#B37B46"/>
<stop offset="0.74" stop-color="#FDDF98"/>
<stop offset="0.84" stop-color="#E3BB7B"/>
<stop offset="1" stop-color="#B37B46"/>
</linearGradient>
<linearGradient id="paint39_linear_221_1942" x1="86.6808" y1="7.33919" x2="92.6289" y2="37.8222" gradientUnits="userSpaceOnUse">
<stop offset="0.21" stop-color="#946036"/>
<stop offset="0.34" stop-color="#D2A467"/>
<stop offset="0.41" stop-color="#C8975D"/>
<stop offset="0.53" stop-color="#B37B46"/>
<stop offset="0.76" stop-color="#FDDF98"/>
<stop offset="0.81" stop-color="#E3BB7B"/>
<stop offset="0.89" stop-color="#B37B46"/>
<stop offset="1" stop-color="#E9C27F"/>
</linearGradient>
<linearGradient id="paint40_linear_221_1942" x1="86.6808" y1="7.33919" x2="92.6289" y2="37.8222" gradientUnits="userSpaceOnUse">
<stop offset="0.21" stop-color="#946036"/>
<stop offset="0.34" stop-color="#D2A467"/>
<stop offset="0.41" stop-color="#C8975D"/>
<stop offset="0.53" stop-color="#B37B46"/>
<stop offset="0.76" stop-color="#FDDF98"/>
<stop offset="0.81" stop-color="#E3BB7B"/>
<stop offset="0.89" stop-color="#B37B46"/>
<stop offset="1" stop-color="#E9C27F"/>
</linearGradient>
<linearGradient id="paint41_linear_221_1942" x1="93.4407" y1="26.2391" x2="78.2338" y2="18.1731" gradientUnits="userSpaceOnUse">
<stop offset="0.21" stop-color="#946036"/>
<stop offset="0.4" stop-color="#B37B46"/>
<stop offset="0.7" stop-color="#FDDF98"/>
<stop offset="0.78" stop-color="#DFBB7C"/>
<stop offset="0.96" stop-color="#946036"/>
<stop offset="1" stop-color="#E9C27F"/>
</linearGradient>
<linearGradient id="paint42_linear_221_1942" x1="86.9618" y1="14.9979" x2="91.8214" y2="54.1453" gradientUnits="userSpaceOnUse">
<stop offset="0.21" stop-color="#946036"/>
<stop offset="0.34" stop-color="#D2A467"/>
<stop offset="0.44" stop-color="#C8975D"/>
<stop offset="0.61" stop-color="#B37B46"/>
<stop offset="0.74" stop-color="#FDDF98"/>
<stop offset="0.78" stop-color="#E3BB7B"/>
<stop offset="0.83" stop-color="#B37B46"/>
<stop offset="0.89" stop-color="#946036"/>
<stop offset="1" stop-color="#E9C27F"/>
</linearGradient>
<linearGradient id="paint43_linear_221_1942" x1="78.2215" y1="25.4113" x2="100.301" y2="22.8494" gradientUnits="userSpaceOnUse">
<stop offset="0.21" stop-color="#946036"/>
<stop offset="0.47" stop-color="#946036"/>
<stop offset="0.63" stop-color="#D2A467"/>
<stop offset="0.68" stop-color="#DAB071"/>
<stop offset="0.76" stop-color="#F2CF8B"/>
<stop offset="0.8" stop-color="#FDDF98"/>
<stop offset="1" stop-color="#E9C27F"/>
</linearGradient>
</defs>
</svg>
