<svg width="20" height="20" viewBox="0 0 20 20" fill="none" xmlns="http://www.w3.org/2000/svg">
<g id="Group 1000002245">
<path id="Star 1" d="M7.81033 1.08765C8.90994 -0.362549 11.0901 -0.362549 12.1897 1.08765C12.7897 1.87893 13.7699 2.28495 14.7537 2.14968C16.5566 1.90178 18.0982 3.44336 17.8503 5.24635C17.7151 6.23012 18.1211 7.21034 18.9124 7.81033C20.3625 8.90994 20.3625 11.0901 18.9124 12.1897C18.1211 12.7897 17.7151 13.7699 17.8503 14.7537C18.0982 16.5566 16.5566 18.0982 14.7537 17.8503C13.7699 17.7151 12.7897 18.1211 12.1897 18.9124C11.0901 20.3625 8.90994 20.3625 7.81033 18.9124C7.21034 18.1211 6.23012 17.7151 5.24635 17.8503C3.44336 18.0982 1.90178 16.5566 2.14968 14.7537C2.28495 13.7699 1.87893 12.7897 1.08765 12.1897C-0.362549 11.0901 -0.362549 8.90994 1.08765 7.81033C1.87893 7.21034 2.28495 6.23012 2.14968 5.24635C1.90178 3.44336 3.44336 1.90178 5.24635 2.14968C6.23012 2.28495 7.21034 1.87893 7.81033 1.08765Z" fill="#4F71AB"/>
<path id="Vector" d="M12 6.42898L12 10.2898C12 10.5257 11.8056 10.7187 11.568 10.7187L10.7039 10.7187L10.7039 13.7859C10.7039 14.0047 10.4144 14.0819 10.3021 13.8931L8.05984 10.0753C7.89135 9.78785 8.09873 9.4318 8.43139 9.4318L9.40779 9.4318L8.33203 6.57912C8.22402 6.30028 8.43139 6 8.73382 6L11.568 6C11.8056 6 12 6.19304 12 6.42898Z" fill="white"/>
</g>
</svg>
