<svg width="13" height="14" viewBox="0 0 13 14" fill="none" xmlns="http://www.w3.org/2000/svg">
<g id="Group 15509">
<path id="Arrow" d="M12.2828 11.2828C12.4391 11.1266 12.4391 10.8734 12.2828 10.7172L9.73726 8.17157C9.58105 8.01536 9.32778 8.01536 9.17157 8.17157C9.01536 8.32778 9.01536 8.58105 9.17157 8.73726L11.4343 11L9.17157 13.2627C9.01536 13.419 9.01536 13.6722 9.17157 13.8284C9.32778 13.9846 9.58105 13.9846 9.73726 13.8284L12.2828 11.2828ZM1 11.4H12V10.6H1V11.4Z" fill="#313234"/>
<path id="Arrow_2" d="M0.717157 2.71716C0.560947 2.87337 0.560947 3.12663 0.717157 3.28284L3.26274 5.82843C3.41895 5.98464 3.67222 5.98464 3.82843 5.82843C3.98464 5.67222 3.98464 5.41895 3.82843 5.26274L1.56569 3L3.82843 0.737258C3.98464 0.581048 3.98464 0.327783 3.82843 0.171573C3.67222 0.0153632 3.41895 0.0153632 3.26274 0.171573L0.717157 2.71716ZM12 2.6L1 2.6V3.4L12 3.4V2.6Z" fill="#313234"/>
</g>
</svg>
