<svg width="24" height="24" viewBox="0 0 24 24" fill="none" xmlns="http://www.w3.org/2000/svg">
<path opacity="0.2" d="M24 12C24 18.6274 18.6274 24 12 24C5.37258 24 0 18.6274 0 12C0 5.37258 5.37258 0 12 0C18.6274 0 24 5.37258 24 12ZM3 12C3 16.9706 7.02944 21 12 21C16.9706 21 21 16.9706 21 12C21 7.02944 16.9706 3 12 3C7.02944 3 3 7.02944 3 12Z" fill="#00B899"/>
<path d="M24.0002 12C24.0002 13.8937 23.552 15.7606 22.6923 17.4479C21.8325 19.1352 20.5857 20.5951 19.0536 21.7082C17.5216 22.8213 15.7478 23.556 13.8774 23.8523C12.007 24.1485 10.093 23.9979 8.29199 23.4127L9.21904 20.5595C10.5698 20.9984 12.0053 21.1114 13.4081 20.8892C14.8109 20.667 16.1412 20.116 17.2903 19.2812C18.4393 18.4463 19.3745 17.3514 20.0193 16.0859C20.6641 14.8204 21.0002 13.4203 21.0002 12H24.0002Z" fill="#00B899"/>
<path d="M-0.000196457 12C-0.000196457 10.1063 0.447992 8.23944 1.30773 6.55211C2.16746 4.86479 3.41432 3.4049 4.94638 2.2918C6.47844 1.17869 8.25218 0.443983 10.1226 0.147739C11.993 -0.148504 13.907 0.0021286 15.708 0.587322L14.781 3.44049C13.4302 3.0016 11.9947 2.88862 10.5919 3.11081C9.18909 3.33299 7.85878 3.88402 6.70974 4.71885C5.56069 5.55367 4.62555 6.64859 3.98075 7.91409C3.33595 9.17958 2.9998 10.5797 2.9998 12H-0.000196457Z" fill="#00B899"/>
</svg>
