<svg width="20" height="20" viewBox="0 0 20 20" fill="none" xmlns="http://www.w3.org/2000/svg">
<g id="Group 16">
<path id="Vector" d="M10 20C15.5556 20 20 15.5556 20 10C20 4.44444 15.5556 0 10 0C4.44444 0 0 4.44444 0 10C0 15.5556 4.44444 20 10 20Z" fill="#A8E0D3"/>
<path id="Vector_2" fill-rule="evenodd" clip-rule="evenodd" d="M10.1113 13.3333L11.778 14.2222C12.2224 14.5556 12.8891 14.3333 13.1113 13.7778C13.2224 13.5556 13.2224 13.3333 13.2224 13.1111L12.778 11.2222L14.2224 9.8889C14.6669 9.44445 14.6669 8.8889 14.2224 8.44445C14.1113 8.33334 13.8891 8.22223 13.6669 8.11112L11.6669 7.77778L10.778 6.00001C10.5558 5.55556 10.0002 5.33334 9.44466 5.55556C9.22243 5.55556 8.11132 7.66667 8.11132 7.66667L6.22244 8.00001C5.66688 8.11112 5.22244 8.55556 5.33355 9.11112C5.33355 9.33334 5.44466 9.55556 5.66688 9.66667L7.11132 11L6.66688 12.8889C6.66688 13.4445 7.00021 13.8889 7.55577 14.1111C7.77799 14.1111 8.00021 14.1111 8.22243 14L10.1113 13.3333Z" fill="#007A56"/>
</g>
</svg>
